<?xml version="1.0" encoding="UTF-8"?>
<svg height="16px" viewBox="0 0 16 16" width="16px" xmlns="http://www.w3.org/2000/svg" xmlns:xlink="http://www.w3.org/1999/xlink">
    <filter id="a" height="100%" width="100%" x="0%" y="0%">
        <feColorMatrix in="SourceGraphic" type="matrix" values="0 0 0 0 1 0 0 0 0 1 0 0 0 0 1 0 0 0 1 0"/>
    </filter>
    <mask id="b">
        <g filter="url(#a)">
            <rect fill-opacity="0.05" height="16" width="16"/>
        </g>
    </mask>
    <radialGradient id="c" cx="63.999996" cy="194.190475" gradientTransform="matrix(-4.727273 -0.00000129 -0.0000003 1.431818 370.545471 -162.71204)" gradientUnits="userSpaceOnUse" r="44">
        <stop offset="0" stop-color="#ffffff"/>
        <stop offset="1" stop-color="#ffffff" stop-opacity="0.094118"/>
    </radialGradient>
    <clipPath id="d">
        <rect height="152" width="192"/>
    </clipPath>
    <mask id="e">
        <g filter="url(#a)">
            <rect fill-opacity="0.02" height="16" width="16"/>
        </g>
    </mask>
    <clipPath id="f">
        <rect height="152" width="192"/>
    </clipPath>
    <mask id="g">
        <g filter="url(#a)">
            <rect fill-opacity="0.236" height="16" width="16"/>
        </g>
    </mask>
    <clipPath id="h">
        <rect height="152" width="192"/>
    </clipPath>
    <g clip-path="url(#d)" mask="url(#b)" transform="matrix(1 0 0 1 -168 -16)">
        <path d="m 24 120 h 96 v -68 h -96 z m 0 0" fill="url(#c)"/>
    </g>
    <g clip-path="url(#f)" mask="url(#e)" transform="matrix(1 0 0 1 -168 -16)">
        <path d="m 184 16 h -16 v 16 h 16 z m 0 0" fill="#2e3436"/>
    </g>
    <path d="m 12 1 c 1.660156 0 3 1.339844 3 3 v 8 c 0 1.660156 -1.339844 3 -3 3 h -8 c -1.660156 0 -3 -1.339844 -3 -3 v -8 c 0 -1.660156 1.339844 -3 3 -3 z m 0 2 h -8 c -0.554688 0 -1 0.445312 -1 1 v 8 c 0 0.554688 0.445312 1 1 1 h 8 c 0.554688 0 1 -0.445312 1 -1 v -8 c 0 -0.554688 -0.445312 -1 -1 -1 z m 0 0" fill="#2e3436"/>
    <g clip-path="url(#h)" mask="url(#g)" transform="matrix(1 0 0 1 -168 -16)">
        <path d="m 16 244 h 36 l 10 -23 l 6 39 l 8 -16 h 36" fill="none" stroke="#4fd2fd" stroke-miterlimit="10" stroke-width="4" transform="matrix(1 0 0 1 8 -156)"/>
    </g>
    <g fill="#2e3436">
        <path d="m 10 8 h -1 v 1 h 1 z m 0 0"/>
        <path d="m 9 6 h -1 v 3 h 1 z m 0 0"/>
        <path d="m 8 5 h -1 v 1 h 1 z m 0 0"/>
        <path d="m 7 6 h -1 v 4 h 1 z m 0 0"/>
        <path d="m 6 10 h -1 v 1 h 1 z m 0 0"/>
        <path d="m 5 9 h -1 v 2 h 1 z m 0 0"/>
        <path d="m 5 8 h -3.273438 v 1 h 3.273438 z m 0 0"/>
        <path d="m 12 8 h -1 v 1 h 1 z m 0 0"/>
    </g>
</svg>
