<?xml version="1.0" encoding="UTF-8"?>
<svg height="128px" viewBox="0 0 128 128" width="128px" xmlns="http://www.w3.org/2000/svg" xmlns:xlink="http://www.w3.org/1999/xlink">
    <defs>
        <linearGradient id="a" gradientUnits="userSpaceOnUse" x1="7.99999" x2="119.99999" y1="103.99999975" y2="103.99999975">
            <stop offset="0" stop-color="#d5d3cf"/>
            <stop offset="0.0357143" stop-color="#e4e1de"/>
            <stop offset="0.0714286" stop-color="#d5d3cf"/>
            <stop offset="0.928571" stop-color="#d5d3cf"/>
            <stop offset="0.964286" stop-color="#e4e1de"/>
            <stop offset="1" stop-color="#d5d3cf"/>
        </linearGradient>
        <filter id="b" height="100%" width="100%" x="0%" y="0%">
            <feColorMatrix in="SourceGraphic" type="matrix" values="0 0 0 0 1 0 0 0 0 1 0 0 0 0 1 0 0 0 1 0"/>
        </filter>
        <mask id="c">
            <g filter="url(#b)">
                <rect fill-opacity="0.05" height="128" width="128"/>
            </g>
        </mask>
        <mask id="d">
            <g filter="url(#b)">
                <rect fill-opacity="0.02" height="128" width="128"/>
            </g>
        </mask>
        <mask id="e">
            <g filter="url(#b)">
                <rect fill-opacity="0.236" height="128" width="128"/>
            </g>
        </mask>
        <linearGradient id="f" gradientUnits="userSpaceOnUse" x1="83.99999" x2="23.99999" y1="239.38980875" y2="239.38980875">
            <stop offset="0" stop-color="#4fd2fd"/>
            <stop offset="1" stop-color="#4fd2fd" stop-opacity="0"/>
        </linearGradient>
        <mask id="g">
            <g filter="url(#b)">
                <rect fill-opacity="0.05" height="128" width="128"/>
            </g>
        </mask>
        <radialGradient id="h" cx="63.999996" cy="194.190475" gradientTransform="matrix(-4.727273 -0.00000129 -0.0000003 1.431818 370.545471 -162.71204)" gradientUnits="userSpaceOnUse" r="44">
            <stop offset="0" stop-color="#ffffff"/>
            <stop offset="1" stop-color="#ffffff" stop-opacity="0.094118"/>
        </radialGradient>
        <clipPath id="i">
            <rect height="152" width="192"/>
        </clipPath>
        <g id="j" clip-path="url(#i)">
            <path d="m 24 120 h 96 v -68 h -96 z m 0 0" fill="url(#h)"/>
        </g>
        <mask id="k">
            <g filter="url(#b)">
                <rect fill-opacity="0.02" height="128" width="128"/>
            </g>
        </mask>
        <clipPath id="l">
            <rect height="152" width="192"/>
        </clipPath>
        <g id="m" clip-path="url(#l)">
            <path d="m 184 16 h -16 v 16 h 16 z m 0 0" fill="#2e3436"/>
        </g>
        <mask id="n">
            <g filter="url(#b)">
                <rect fill-opacity="0.236" height="128" width="128"/>
            </g>
        </mask>
        <clipPath id="o">
            <rect height="152" width="192"/>
        </clipPath>
        <g id="p" clip-path="url(#o)">
            <path d="m 16 244 h 36 l 10 -23 l 6 39 l 8 -16 h 36" fill="none" stroke="#4fd2fd" stroke-miterlimit="10" stroke-width="4" transform="matrix(1 0 0 1 8 -156)"/>
        </g>
        <clipPath id="q">
            <rect height="128" width="128"/>
        </clipPath>
        <clipPath id="r">
            <rect height="128" width="128"/>
        </clipPath>
        <mask id="s">
            <g clip-path="url(#r)" filter="url(#b)">
                <g clip-path="url(#q)">
                    <path d="m 16 28 h 96 c 4.417969 0 8 3.582031 8 8 v 70 c 0 4.417969 -3.582031 8 -8 8 h -96 c -4.417969 0 -8 -3.582031 -8 -8 v -70 c 0 -4.417969 3.582031 -8 8 -8 z m 0 0" fill="#f6f5f4"/>
                    <path d="m 16 32 h 96 c 2.210938 0 4 1.789062 4 4 v 68 c 0 2.210938 -1.789062 4 -4 4 h -96 c -2.210938 0 -4 -1.789062 -4 -4 v -68 c 0 -2.210938 1.789062 -4 4 -4 z m 0 0" fill="#241f31"/>
                    <path d="m 8 104 v 4 c 0 4.433594 3.566406 8 8 8 h 96 c 4.433594 0 8 -3.566406 8 -8 v -4 c 0 4.433594 -3.566406 8 -8 8 h -96 c -4.433594 0 -8 -3.566406 -8 -8 z m 0 0" fill="url(#a)"/>
                    <use mask="url(#g)" transform="matrix(1 0 0 1 -8 -16)" xlink:href="#j"/>
                    <use mask="url(#k)" transform="matrix(1 0 0 1 -8 -16)" xlink:href="#m"/>
                    <use mask="url(#n)" transform="matrix(1 0 0 1 -8 -16)" xlink:href="#p"/>
                    <path d="m 16 244 h 36 l 10 -23 l 6 39 l 8 -16 h 6" fill="none" stroke="url(#f)" stroke-linecap="round" stroke-miterlimit="10" stroke-width="4" transform="matrix(1 0 0 1 0 -172)"/>
                </g>
            </g>
        </mask>
        <mask id="t">
            <g filter="url(#b)">
                <rect fill-opacity="0.8" height="128" width="128"/>
            </g>
        </mask>
        <linearGradient id="u" gradientTransform="matrix(0 0.37 -0.98462 0 295.38501 -30.360001)" gradientUnits="userSpaceOnUse" x1="300" x2="428" y1="235" y2="235">
            <stop offset="0" stop-color="#f9f06b"/>
            <stop offset="1" stop-color="#f5c211"/>
        </linearGradient>
        <clipPath id="v">
            <rect height="128" width="128"/>
        </clipPath>
        <clipPath id="w">
            <rect height="128" width="128"/>
        </clipPath>
    </defs>
    <path d="m 16 28 h 96 c 4.417969 0 8 3.582031 8 8 v 70 c 0 4.417969 -3.582031 8 -8 8 h -96 c -4.417969 0 -8 -3.582031 -8 -8 v -70 c 0 -4.417969 3.582031 -8 8 -8 z m 0 0" fill="#f6f5f4"/>
    <path d="m 16 32 h 96 c 2.210938 0 4 1.789062 4 4 v 68 c 0 2.210938 -1.789062 4 -4 4 h -96 c -2.210938 0 -4 -1.789062 -4 -4 v -68 c 0 -2.210938 1.789062 -4 4 -4 z m 0 0" fill="#241f31"/>
    <path d="m 8 104 v 4 c 0 4.433594 3.566406 8 8 8 h 96 c 4.433594 0 8 -3.566406 8 -8 v -4 c 0 4.433594 -3.566406 8 -8 8 h -96 c -4.433594 0 -8 -3.566406 -8 -8 z m 0 0" fill="url(#a)"/>
    <use mask="url(#c)" transform="matrix(1 0 0 1 -8 -16)" xlink:href="#j"/>
    <use mask="url(#d)" transform="matrix(1 0 0 1 -8 -16)" xlink:href="#m"/>
    <use mask="url(#e)" transform="matrix(1 0 0 1 -8 -16)" xlink:href="#p"/>
    <path d="m 16 244 h 36 l 10 -23 l 6 39 l 8 -16 h 6" fill="none" stroke="url(#f)" stroke-linecap="round" stroke-miterlimit="10" stroke-width="4" transform="matrix(1 0 0 1 0 -172)"/>
    <g clip-path="url(#w)" mask="url(#s)">
        <g clip-path="url(#v)" mask="url(#t)">
            <path d="m 128 80.640625 v 47.359375 h -128 v -47.359375 z m 0 0" fill="url(#u)"/>
            <path d="m 13.308594 80.640625 l 47.355468 47.359375 h 21.214844 l -47.359375 -47.359375 z m 42.421875 0 l 47.363281 47.359375 h 21.214844 l -47.363282 -47.359375 z m 42.429687 0 l 29.839844 29.839844 v -21.210938 l -8.628906 -8.628906 z m -98.160156 7.90625 v 21.214844 l 18.238281 18.238281 h 21.214844 z m 0 0"/>
        </g>
    </g>
</svg>
