<?xml version="1.0" encoding="UTF-8"?>
<svg version="1.1" viewBox="0 0 16 16" xmlns="http://www.w3.org/2000/svg">
<filter id="a" x="0" y="0" width="1" height="1">
<feColorMatrix color-interpolation-filters="sRGB" values="0 0 0 0 1 0 0 0 0 1 0 0 0 0 1 0 0 0 1 0"/>
</filter>
<mask>
<g filter="url(#a)">
<path d="m-1.6-1.6h19.2v19.2h-19.2z" fill-opacity=".5"/>
</g>
</mask>
<clipPath>
<path d="m0 0h1600v1200h-1600z"/>
</clipPath>
<mask>
<g filter="url(#a)">
<path d="m-1.6-1.6h19.2v19.2h-19.2z" fill-opacity=".7"/>
</g>
</mask>
<clipPath>
<path d="m0 0h1600v1200h-1600z"/>
</clipPath>
<mask>
<g filter="url(#a)">
<path d="m-1.6-1.6h19.2v19.2h-19.2z" fill-opacity=".35"/>
</g>
</mask>
<clipPath>
<path d="m0 0h1600v1200h-1600z"/>
</clipPath>
<g transform="translate(1.07e-5,-2)">
<path d="m1.9746 4.0004c-0.16106 0.0043522-0.32474 0.048203-0.47461 0.13477-0.47959 0.277-0.64213 0.88546-0.36523 1.3652l2.0781 3.5977c-1.3557 1.3532-2.2054 3.1756-2.2129 4.9023-0.002568 0.59001 0.45704 1 1 1h12c0.53596 0 1.0012-0.37688 1-1-0.0034-1.7471-0.8494-3.5675-2.2031-4.9141l2.0684-3.5859c0.27689-0.47978 0.11436-1.0882-0.36524-1.3652-0.47959-0.277-1.0883-0.11454-1.3652 0.36523l-1.9434 3.3652c-0.95698-0.54119-2.0408-0.86523-3.1914-0.86523-1.1492 0-2.2321 0.32681-3.1875 0.87109l-1.9473-3.3711c-0.19036-0.32985-0.53628-0.50957-0.89062-0.5zm4.0254 6c0.554 0 1 0.43605 1 0.97656v1.0469c0 0.54051-0.446 0.97656-1 0.97656s-1-0.43605-1-0.97656v-1.0469c0-0.54052 0.446-0.97656 1-0.97656zm4 0c0.554 0 1 0.43605 1 0.97656v1.0469c0 0.54051-0.446 0.97656-1 0.97656-0.554 0-1-0.43605-1-0.97656v-1.0469c0-0.54052 0.446-0.97656 1-0.97656z" fill="#222" stroke-linecap="round" stroke-linejoin="round" stroke-opacity=".98824" stroke-width="6.4792" style="paint-order:stroke markers fill"/>
</g>
</svg>
